<?xml version="1.0" encoding="UTF-8"?>
<svg id="_レイヤー_2" data-name="レイヤー 2" xmlns="http://www.w3.org/2000/svg" viewBox="0 0 15.08 4.51">
  <defs>
    <style>
      .cls-1 {
        fill: #211714;
      }

      .cls-2 {
        fill: #a11d3a;
      }
    </style>
  </defs>
  <g id="_header" data-name="
header">
    <g>
      <polygon class="cls-1" points="2.33 3.31 2.33 1.4 1.7 2.64 1.27 2.64 .64 1.4 .64 3.31 0 3.31 0 .03 .63 .03 1.49 1.8 2.34 .03 2.97 .03 2.97 3.31 2.33 3.31"/>
      <polygon class="cls-1" points="3.73 3.31 3.73 .03 5.89 .03 5.89 .6 4.37 .6 4.37 1.37 5.66 1.37 5.66 1.94 4.37 1.94 4.37 2.74 5.89 2.74 5.89 3.31 3.73 3.31"/>
      <rect class="cls-2" x="6.57" y=".03" width=".64" height="3.28"/>
      <path class="cls-2" d="M13.93,3.31c-.2,0-.28-.14-.28-.27v-.94h.24v.28h.17v.2h-.17v.44c0,.06.03.09.08.09h.09v.21h-.13Z"/>
      <path class="cls-2" d="M12.13,3.33c-.84,0-1.21-.56-1.21-1.11v-1.12c0-.55.38-1.11,1.21-1.11s1.21.56,1.21,1.11v1.12c0,.55-.38,1.11-1.21,1.11M12.13.57c-.36,0-.57.21-.57.55v1.09c0,.34.21.55.57.55s.57-.21.57-.55v-1.09c0-.34-.21-.55-.57-.55"/>
      <path class="cls-2" d="M14.79,2.36c-.09,0-.19.04-.26.11v-.47h-.24v1.31h.24v-.6s.12-.12.21-.12c.07,0,.11.05.11.11v.61h.24v-.64c0-.16-.12-.3-.3-.3"/>
      <path class="cls-2" d="M9.11.03c-.84,0-1.21.56-1.21,1.11v.89h.64v-.87c0-.34.21-.55.57-.55V.03Z"/>
      <path class="cls-1" d="M9.3.03v.57h.38v1.61c0,.34-.21.55-.57.55s-.57-.21-.57-.55h0s-.64,0-.64,0h0c0,.56.38,1.12,1.21,1.12s1.21-.56,1.21-1.11V.03h-1.02Z"/>
      <polygon class="cls-1" points=".45 4.51 .45 4.14 .33 4.38 .25 4.38 .12 4.14 .12 4.51 0 4.51 0 3.88 .12 3.88 .29 4.22 .45 3.88 .57 3.88 .57 4.51 .45 4.51"/>
      <polygon class="cls-1" points=".81 4.51 .81 3.88 1.22 3.88 1.22 3.99 .93 3.99 .93 4.13 1.18 4.13 1.18 4.24 .93 4.24 .93 4.4 1.22 4.4 1.22 4.51 .81 4.51"/>
      <rect class="cls-1" x="1.46" y="3.88" width=".12" height=".63"/>
      <path class="cls-1" d="M1.91,4.51c-.07,0-.12-.02-.16-.06l.08-.08s.04.04.08.04c.06,0,.1-.04.1-.11v-.42h.12v.42c0,.14-.11.21-.22.21"/>
      <path class="cls-1" d="M2.75,4.45s-.1.07-.17.07-.13-.02-.17-.07c-.06-.06-.06-.13-.06-.25s0-.19.06-.25c.04-.04.1-.07.17-.07s.13.02.17.07c.06.06.06.13.06.25s0,.19-.06.25M2.66,4.01s-.05-.03-.08-.03-.06.01-.08.03c-.02.03-.03.06-.03.18s0,.15.03.18c.02.02.05.03.08.03s.06-.01.08-.03c.02-.03.03-.06.03-.18s0-.15-.03-.18"/>
      <path class="cls-1" d="M3.6,4.51c-.13,0-.23-.09-.23-.22v-.42h.12v.41c0,.07.04.12.11.12s.11-.04.11-.12v-.41h.12v.42c0,.13-.1.22-.23.22"/>
      <polygon class="cls-1" points="4.45 4.51 4.2 4.12 4.2 4.51 4.07 4.51 4.07 3.88 4.18 3.88 4.43 4.26 4.43 3.88 4.56 3.88 4.56 4.51 4.45 4.51"/>
      <rect class="cls-1" x="4.79" y="3.88" width=".12" height=".63"/>
      <polygon class="cls-1" points="5.41 4.51 5.31 4.51 5.1 3.88 5.23 3.88 5.36 4.29 5.49 3.88 5.61 3.88 5.41 4.51"/>
      <polygon class="cls-1" points="5.8 4.51 5.8 3.88 6.22 3.88 6.22 3.99 5.93 3.99 5.93 4.13 6.18 4.13 6.18 4.24 5.93 4.24 5.93 4.4 6.22 4.4 6.22 4.51 5.8 4.51"/>
      <path class="cls-1" d="M6.79,4.51l-.12-.25h-.09v.25h-.12v-.63h.25c.13,0,.21.09.21.19,0,.09-.05.14-.12.17l.14.27h-.14ZM6.69,3.99h-.12v.17h.12c.05,0,.09-.03.09-.08s-.04-.08-.09-.08"/>
      <path class="cls-1" d="M7.33,4.51c-.1,0-.17-.02-.23-.08l.08-.08s.09.05.15.05c.07,0,.11-.03.11-.08,0-.02,0-.04-.02-.05-.01-.01-.02-.02-.06-.02h-.08c-.06-.02-.09-.04-.12-.06-.03-.03-.05-.07-.05-.12,0-.11.08-.19.22-.19.09,0,.15.02.2.07l-.08.08s-.09-.04-.13-.04c-.07,0-.1.04-.1.08,0,.02,0,.03.02.05.01.01.03.02.06.02h.08c.06.02.09.03.12.06.03.03.05.08.05.13,0,.12-.1.19-.23.19"/>
      <rect class="cls-1" x="7.8" y="3.88" width=".12" height=".63"/>
      <polygon class="cls-1" points="8.4 3.99 8.4 4.51 8.28 4.51 8.28 3.99 8.11 3.99 8.11 3.88 8.56 3.88 8.56 3.99 8.4 3.99"/>
      <polygon class="cls-1" points="8.99 4.25 8.99 4.51 8.87 4.51 8.87 4.25 8.68 3.88 8.82 3.88 8.93 4.13 9.05 3.88 9.18 3.88 8.99 4.25"/>
      <polygon class="cls-1" points="9.87 4.51 9.87 4 9.74 4.11 9.74 3.99 9.87 3.88 9.98 3.88 9.98 4.51 9.87 4.51"/>
      <path class="cls-1" d="M10.56,4.24l-.13.27h-.13l.13-.26s-.03,0-.05,0c-.09,0-.17-.07-.17-.19,0-.12.09-.2.2-.2s.2.07.2.2c0,.06-.02.11-.05.17M10.42,3.97s-.08.03-.08.09.03.09.08.09.08-.03.08-.09-.03-.09-.08-.09"/>
      <path class="cls-1" d="M10.78,4.51v-.1l.24-.27s.03-.05.03-.08c0-.05-.03-.08-.08-.08-.04,0-.08.02-.08.08h-.12c0-.12.08-.18.19-.18s.19.07.19.18c0,.06-.02.09-.07.14l-.18.21h.24v.1h-.38Z"/>
      <path class="cls-1" d="M11.52,4.51c-.11,0-.2-.07-.2-.2,0-.06.02-.11.05-.17l.13-.27h.13l-.13.26s.03,0,.05,0c.09,0,.17.07.17.19,0,.12-.09.2-.2.2M11.52,4.23s-.08.03-.08.09.03.09.08.09.08-.03.08-.09-.03-.09-.08-.09"/>
      <path class="cls-1" d="M14.14,4.51v-.1l.24-.27s.03-.05.03-.08c0-.05-.03-.08-.08-.08-.04,0-.08.02-.08.08h-.12c0-.12.08-.18.19-.18s.19.07.19.18c0,.06-.02.09-.07.14l-.18.21h.24v.1h-.38Z"/>
      <path class="cls-1" d="M14.89,4.51c-.11,0-.2-.07-.2-.2,0-.06.02-.11.05-.17l.13-.27h.13l-.13.26s.03,0,.05,0c.09,0,.17.07.17.19,0,.12-.09.2-.2.2M14.89,4.23s-.08.03-.08.09.03.09.08.09.08-.03.08-.09-.03-.09-.08-.09"/>
      <path class="cls-1" d="M12.99,4.51v-.1l.24-.27s.03-.05.03-.08c0-.05-.03-.08-.08-.08-.04,0-.08.02-.08.08h-.12c0-.12.08-.18.19-.18s.19.07.19.18c0,.06-.02.09-.07.14l-.18.21h.24v.1h-.38Z"/>
      <path class="cls-1" d="M13.76,4.51c-.1,0-.19-.07-.19-.19v-.27c0-.12.09-.19.19-.19s.19.07.19.19v.27c0,.12-.09.19-.19.19M13.83,4.06c0-.05-.03-.09-.08-.09s-.08.03-.08.09v.26c0,.05.03.09.08.09s.08-.03.08-.09v-.26Z"/>
      <polygon class="cls-1" points="12.5 4.29 12.39 4.29 12.53 4.43 12 4.43 12 4.51 12.72 4.51 12.5 4.29"/>
    </g>
  </g>
</svg>